<svg xmlns="http://www.w3.org/2000/svg" viewBox="0 0 28 28"><rect width="28" height="28" rx="5" fill="#253f70"/><g fill="#eaf4ff"><ellipse cx="8.3" cy="9" rx="2.1" ry="2.8" transform="rotate(-22 8.3 9)"/><ellipse cx="13" cy="6.7" rx="2.1" ry="2.8"/><ellipse cx="18.2" cy="8" rx="2.1" ry="2.8" transform="rotate(19 18.2 8)"/><ellipse cx="22" cy="12.3" rx="1.8" ry="2.5" transform="rotate(28 22 12.3)"/><path d="M7.6 19.4c0-2.1 2.2-3.3 3.3-5.1.9-1.4 1.8-2.2 3.1-2.2s2.3.8 3.2 2.2c1.1 1.8 3.3 3 3.3 5.1 0 2-1.4 3.2-3.5 3.2-1.1 0-2.1-.5-3-.5s-1.9.5-3 .5c-2.1 0-3.4-1.2-3.4-3.2z"/></g></svg>
